<svg xmlns="http://www.w3.org/2000/svg" xmlns:xlink="http://www.w3.org/1999/xlink" width="566" zoomAndPan="magnify" viewBox="0 0 425.25 425.249985" height="566" preserveAspectRatio="xMidYMid meet" version="1.0"><defs><g/><clipPath id="03eebeaf74"><path d="M 0 0 L 424.5 0 L 424.5 424.5 L 0 424.5 Z M 0 0 " clip-rule="nonzero"/></clipPath><clipPath id="baa8c79c76"><path d="M 34.519531 34.519531 L 390.890625 34.519531 L 390.890625 390.890625 L 34.519531 390.890625 Z M 34.519531 34.519531 " clip-rule="nonzero"/></clipPath></defs><g clip-path="url(#03eebeaf74)"><path fill="#ffffff" d="M 0 0 L 425.25 0 L 425.25 432.738281 L 0 432.738281 Z M 0 0 " fill-opacity="1" fill-rule="nonzero"/><path fill="#ffffff" d="M 0 0 L 424.5 0 L 424.5 424.5 L 0 424.5 Z M 0 0 " fill-opacity="1" fill-rule="nonzero"/><path fill="#010101" d="M 0 0 L 424.5 0 L 424.5 424.5 L 0 424.5 Z M 0 0 " fill-opacity="1" fill-rule="nonzero"/><path fill="#545454" d="M 0 0 L 0 424.5 L 424.5 424.5 L 424.5 0 Z M 413.660156 413.660156 L 10.839844 413.660156 L 10.839844 10.839844 L 413.652344 10.839844 L 413.652344 413.660156 Z M 413.660156 413.660156 " fill-opacity="1" fill-rule="nonzero"/></g><g clip-path="url(#baa8c79c76)"><path fill="#ffffff" d="M 34.519531 34.519531 L 34.519531 390.890625 L 390.890625 390.890625 L 390.890625 34.519531 Z M 386.863281 386.863281 L 38.546875 386.863281 L 38.546875 38.546875 L 386.863281 38.546875 Z M 386.863281 386.863281 " fill-opacity="1" fill-rule="nonzero"/></g><g fill="#ffffff" fill-opacity="1"><g transform="translate(48.77442, 226.124396)"><g><path d="M 6.4375 -145.578125 L 44.90625 -145.578125 C 56.539062 -145.578125 64.84375 -141.816406 69.8125 -134.296875 C 74.789062 -126.785156 77.28125 -115.800781 77.28125 -101.34375 C 77.28125 -86.882812 75.078125 -75.984375 70.671875 -68.640625 C 66.265625 -61.296875 58.351562 -57.625 46.9375 -57.625 L 35.078125 -57.625 L 35.078125 0 L 6.4375 0 Z M 36.78125 -83.890625 C 40.28125 -83.890625 42.847656 -84.535156 44.484375 -85.828125 C 46.117188 -87.128906 47.191406 -88.992188 47.703125 -91.421875 C 48.210938 -93.859375 48.46875 -97.332031 48.46875 -101.84375 C 48.46875 -107.945312 47.789062 -112.351562 46.4375 -115.0625 C 45.082031 -117.78125 42.367188 -119.140625 38.296875 -119.140625 L 35.078125 -119.140625 L 35.078125 -83.890625 Z M 36.78125 -83.890625 "/></g></g></g><g fill="#a6467e" fill-opacity="1"><g transform="translate(128.756388, 226.124396)"><g><path d="M 41.1875 1.359375 C 29.4375 1.359375 20.507812 -2.226562 14.40625 -9.40625 C 8.300781 -16.582031 5.25 -26.664062 5.25 -39.65625 L 5.25 -108.96875 C 5.25 -121.507812 8.300781 -130.96875 14.40625 -137.34375 C 20.507812 -143.726562 29.4375 -146.921875 41.1875 -146.921875 C 52.9375 -146.921875 61.859375 -143.726562 67.953125 -137.34375 C 74.054688 -130.96875 77.109375 -121.507812 77.109375 -108.96875 L 77.109375 -39.65625 C 77.109375 -26.550781 74.054688 -16.4375 67.953125 -9.3125 C 61.859375 -2.195312 52.9375 1.359375 41.1875 1.359375 Z M 41.1875 -25.421875 C 43.78125 -25.421875 45.53125 -26.550781 46.4375 -28.8125 C 47.34375 -31.070312 47.796875 -34.234375 47.796875 -38.296875 L 47.796875 -109.484375 C 47.796875 -112.640625 47.367188 -115.207031 46.515625 -117.1875 C 45.671875 -119.164062 43.945312 -120.15625 41.34375 -120.15625 C 36.488281 -120.15625 34.0625 -116.484375 34.0625 -109.140625 L 34.0625 -38.125 C 34.0625 -33.945312 34.566406 -30.785156 35.578125 -28.640625 C 36.597656 -26.492188 38.46875 -25.421875 41.1875 -25.421875 Z M 41.1875 -25.421875 "/></g></g></g><g fill="#ffffff" fill-opacity="1"><g transform="translate(211.112619, 226.124396)"><g><path d="M 36.4375 1.359375 C 25.925781 1.359375 18.097656 -2.335938 12.953125 -9.734375 C 7.816406 -17.140625 5.25 -28.359375 5.25 -43.390625 L 5.25 -106.09375 C 5.25 -119.53125 8.242188 -129.691406 14.234375 -136.578125 C 20.222656 -143.472656 29.148438 -146.921875 41.015625 -146.921875 C 50.617188 -146.921875 58.070312 -145 63.375 -141.15625 C 68.6875 -137.320312 72.359375 -131.734375 74.390625 -124.390625 C 76.429688 -117.046875 77.453125 -107.613281 77.453125 -96.09375 L 48.96875 -96.09375 L 48.96875 -109.140625 C 48.96875 -112.640625 48.488281 -115.347656 47.53125 -117.265625 C 46.570312 -119.191406 44.847656 -120.15625 42.359375 -120.15625 C 36.828125 -120.15625 34.0625 -116.539062 34.0625 -109.3125 L 34.0625 -38.8125 C 34.0625 -34.40625 34.625 -31.070312 35.75 -28.8125 C 36.882812 -26.550781 38.863281 -25.421875 41.6875 -25.421875 C 44.507812 -25.421875 46.484375 -26.550781 47.609375 -28.8125 C 48.742188 -31.070312 49.3125 -34.40625 49.3125 -38.8125 L 49.3125 -59.65625 L 41.515625 -59.65625 L 41.515625 -84.734375 L 77.109375 -84.734375 L 77.109375 0 L 65.421875 0 L 60.5 -12.203125 C 55.300781 -3.160156 47.28125 1.359375 36.4375 1.359375 Z M 36.4375 1.359375 "/></g></g></g><g fill="#db1a48" fill-opacity="1"><g transform="translate(293.296412, 226.124396)"><g><path d="M 41.1875 1.359375 C 29.4375 1.359375 20.507812 -2.226562 14.40625 -9.40625 C 8.300781 -16.582031 5.25 -26.664062 5.25 -39.65625 L 5.25 -108.96875 C 5.25 -121.507812 8.300781 -130.96875 14.40625 -137.34375 C 20.507812 -143.726562 29.4375 -146.921875 41.1875 -146.921875 C 52.9375 -146.921875 61.859375 -143.726562 67.953125 -137.34375 C 74.054688 -130.96875 77.109375 -121.507812 77.109375 -108.96875 L 77.109375 -39.65625 C 77.109375 -26.550781 74.054688 -16.4375 67.953125 -9.3125 C 61.859375 -2.195312 52.9375 1.359375 41.1875 1.359375 Z M 41.1875 -25.421875 C 43.78125 -25.421875 45.53125 -26.550781 46.4375 -28.8125 C 47.34375 -31.070312 47.796875 -34.234375 47.796875 -38.296875 L 47.796875 -109.484375 C 47.796875 -112.640625 47.367188 -115.207031 46.515625 -117.1875 C 45.671875 -119.164062 43.945312 -120.15625 41.34375 -120.15625 C 36.488281 -120.15625 34.0625 -116.484375 34.0625 -109.140625 L 34.0625 -38.125 C 34.0625 -33.945312 34.566406 -30.785156 35.578125 -28.640625 C 36.597656 -26.492188 38.46875 -25.421875 41.1875 -25.421875 Z M 41.1875 -25.421875 "/></g></g></g><path stroke-linecap="butt" transform="matrix(3.758881, 0, 0, 3.304516, 48.747892, 243.881549)" fill="none" stroke-linejoin="miter" d="M -0.000478357 0.000382472 L 21.911168 0.000382472 " stroke="#ffffff" stroke-width="1" stroke-opacity="1" stroke-miterlimit="4"/><path stroke-linecap="butt" transform="matrix(3.750925, 0, 0, 3.304516, 130.770441, 243.881549)" fill="none" stroke-linejoin="miter" d="M -0.000242523 0.000382472 L 21.758972 0.000382472 " stroke="#a6467e" stroke-width="1" stroke-opacity="1" stroke-miterlimit="4"/><path stroke-linecap="butt" transform="matrix(3.758718, 0, 0, 3.304516, 212.224125, 243.881549)" fill="none" stroke-linejoin="miter" d="M -0.000390856 0.000382472 L 22.908847 0.000382472 " stroke="#ffffff" stroke-width="1" stroke-opacity="1" stroke-miterlimit="4"/><path stroke-linecap="butt" transform="matrix(3.750723, 0, 0, 3.304516, 297.982703, 243.881549)" fill="none" stroke-linejoin="miter" d="M 0.000445871 0.000382472 L 20.761026 0.000382472 " stroke="#db1a48" stroke-width="1" stroke-opacity="1" stroke-miterlimit="4"/><g fill="#ffffff" fill-opacity="1"><g transform="translate(84.087797, 290.809899)"><g><path d="M 5.585938 -2.929688 L 5.585938 -12.914062 L 18.300781 -12.914062 L 18.300781 -15.605469 L 5.585938 -15.605469 L 5.585938 -24.835938 L 20.28125 -24.835938 L 20.28125 -27.726562 L 2.296875 -27.726562 L 2.296875 0 L 20.675781 0 L 20.675781 -2.929688 Z M 5.585938 -2.929688 "/></g></g></g><g fill="#ffffff" fill-opacity="1"><g transform="translate(105.950431, 290.809899)"><g><path d="M 14.535156 -15.328125 L 17.46875 -15.328125 C 16.636719 -18.894531 13.746094 -20.796875 9.464844 -20.796875 C 4.832031 -20.796875 1.820312 -18.65625 1.820312 -15.171875 C 1.820312 -12.277344 3.683594 -10.617188 7.484375 -9.703125 L 11.089844 -8.871094 C 13.386719 -8.316406 14.734375 -7.761719 14.734375 -5.703125 C 14.734375 -3.328125 12.476562 -2.21875 9.664062 -2.21875 C 6.972656 -2.21875 4.675781 -3.167969 4.078125 -6.019531 L 1.109375 -6.019531 C 1.625 -1.664062 5.070312 0.277344 9.625 0.277344 C 13.980469 0.277344 17.902344 -1.464844 17.902344 -5.664062 C 17.902344 -9.464844 15.527344 -10.257812 11.722656 -11.128906 L 8.398438 -11.921875 C 5.863281 -12.515625 4.832031 -13.425781 4.832031 -15.089844 C 4.832031 -16.953125 6.496094 -18.339844 9.464844 -18.339844 C 12.042969 -18.339844 13.824219 -17.46875 14.535156 -15.328125 Z M 14.535156 -15.328125 "/></g></g></g><g fill="#ffffff" fill-opacity="1"><g transform="translate(124.96142, 290.809899)"><g/></g></g><g fill="#ffffff" fill-opacity="1"><g transform="translate(135.773918, 290.809899)"><g><path d="M 2.296875 -27.726562 L 2.296875 0 L 5.585938 0 L 5.585938 -21.625 L 5.703125 -21.625 L 15.089844 0 L 17.785156 0 L 27.132812 -21.625 L 27.25 -21.625 L 27.25 0 L 30.578125 0 L 30.578125 -27.726562 L 26.894531 -27.726562 L 16.4375 -4.199219 L 5.941406 -27.726562 Z M 2.296875 -27.726562 "/></g></g></g><g fill="#ffffff" fill-opacity="1"><g transform="translate(168.607481, 290.809899)"><g><path d="M 10.851562 -20.796875 C 6.335938 -20.796875 1.308594 -17.546875 1.308594 -10.296875 C 1.308594 -2.972656 6.335938 0.277344 10.851562 0.277344 C 15.367188 0.277344 20.4375 -2.972656 20.4375 -10.296875 C 20.4375 -17.546875 15.367188 -20.796875 10.851562 -20.796875 Z M 17.347656 -10.296875 C 17.347656 -4.832031 14.179688 -2.375 10.851562 -2.375 C 7.527344 -2.375 4.355469 -4.832031 4.355469 -10.296875 C 4.355469 -15.726562 7.527344 -18.140625 10.851562 -18.140625 C 14.179688 -18.140625 17.347656 -15.726562 17.347656 -10.296875 Z M 17.347656 -10.296875 "/></g></g></g><g fill="#ffffff" fill-opacity="1"><g transform="translate(190.311698, 290.809899)"><g><path d="M 12.675781 0 L 20.875 -20.597656 L 17.707031 -20.597656 L 10.894531 -3.089844 L 4.078125 -20.597656 L 0.910156 -20.597656 L 9.109375 0 Z M 12.675781 0 "/></g></g></g><g fill="#ffffff" fill-opacity="1"><g transform="translate(212.055514, 290.809899)"><g><path d="M 2.296875 -28.082031 L 2.296875 -25.152344 L 5.464844 -25.152344 L 5.464844 -28.082031 Z M 2.296875 -20.597656 L 2.296875 0 L 5.464844 0 L 5.464844 -20.597656 Z M 2.296875 -20.597656 "/></g></g></g><g fill="#ffffff" fill-opacity="1"><g transform="translate(219.778729, 290.809899)"><g><path d="M 26.460938 -20.796875 C 22.578125 -20.796875 19.921875 -18.023438 19.132812 -15.804688 C 18.179688 -19.449219 15.527344 -20.796875 12.476562 -20.796875 C 8.238281 -20.796875 5.863281 -17.308594 5.464844 -15.804688 L 5.464844 -20.597656 L 2.296875 -20.597656 L 2.296875 0 L 5.464844 0 L 5.464844 -12.714844 C 5.78125 -14.695312 7.722656 -18.101562 11.527344 -18.101562 C 14.339844 -18.101562 16.320312 -16.597656 16.320312 -12.277344 L 16.320312 0 L 19.488281 0 L 19.488281 -12.515625 C 19.488281 -14.617188 21.667969 -18.101562 25.546875 -18.101562 C 28.398438 -18.101562 30.339844 -16.597656 30.339844 -12.277344 L 30.339844 0 L 33.507812 0 L 33.507812 -12.398438 C 33.507812 -18.65625 30.339844 -20.796875 26.460938 -20.796875 Z M 26.460938 -20.796875 "/></g></g></g><g fill="#ffffff" fill-opacity="1"><g transform="translate(255.543157, 290.809899)"><g><path d="M 2.296875 -28.082031 L 2.296875 -25.152344 L 5.464844 -25.152344 L 5.464844 -28.082031 Z M 2.296875 -20.597656 L 2.296875 0 L 5.464844 0 L 5.464844 -20.597656 Z M 2.296875 -20.597656 "/></g></g></g><g fill="#ffffff" fill-opacity="1"><g transform="translate(263.266372, 290.809899)"><g><path d="M 20.082031 -10.140625 C 20.082031 -17.507812 15.84375 -20.796875 10.894531 -20.796875 C 6.019531 -20.796875 1.308594 -17.507812 1.308594 -10.257812 C 1.308594 -3.050781 5.824219 0.277344 10.933594 0.277344 C 15.050781 0.277344 17.746094 -1.1875 19.367188 -4.59375 L 16.4375 -4.59375 C 15.210938 -2.851562 13.664062 -2.179688 11.089844 -2.179688 C 7.367188 -2.179688 4.753906 -4.277344 4.398438 -9.148438 L 20.042969 -9.148438 C 20.082031 -9.507812 20.082031 -9.824219 20.082031 -10.140625 Z M 4.398438 -11.328125 C 4.753906 -16.082031 7.445312 -18.339844 10.894531 -18.339844 C 14.496094 -18.339844 16.953125 -15.921875 17.03125 -11.328125 Z M 4.398438 -11.328125 "/></g></g></g><g fill="#ffffff" fill-opacity="1"><g transform="translate(284.614132, 290.809899)"><g><path d="M 12.792969 -20.796875 C 8.359375 -20.796875 5.902344 -17.308594 5.464844 -15.804688 L 5.464844 -20.597656 L 2.296875 -20.597656 L 2.296875 0 L 5.464844 0 L 5.464844 -12.753906 C 5.863281 -14.695312 7.84375 -18.101562 11.765625 -18.101562 C 14.894531 -18.101562 16.953125 -16.675781 16.953125 -12.359375 L 16.953125 0 L 20.121094 0 L 20.121094 -12.476562 C 20.121094 -18.734375 16.914062 -20.796875 12.792969 -20.796875 Z M 12.792969 -20.796875 "/></g></g></g><g fill="#ffffff" fill-opacity="1"><g transform="translate(306.991654, 290.809899)"><g><path d="M 9.109375 -2.335938 C 7.566406 -2.335938 7.050781 -2.972656 7.050781 -4.078125 L 7.050781 -18.0625 L 11.050781 -18.0625 L 11.050781 -20.597656 L 7.050781 -20.597656 L 7.050781 -25.746094 L 3.882812 -25.746094 L 3.882812 -20.597656 L 0.714844 -20.597656 L 0.714844 -18.0625 L 3.882812 -18.0625 L 3.882812 -3.761719 C 3.882812 -0.554688 5.78125 0.238281 8.160156 0.238281 C 9.347656 0.238281 10.496094 0.078125 11.367188 -0.238281 L 11.367188 -2.652344 C 10.496094 -2.417969 9.824219 -2.335938 9.109375 -2.335938 Z M 9.109375 -2.335938 "/></g></g></g><g fill="#ffffff" fill-opacity="1"><g transform="translate(319.626036, 290.809899)"><g><path d="M 10.851562 -20.796875 C 6.335938 -20.796875 1.308594 -17.546875 1.308594 -10.296875 C 1.308594 -2.972656 6.335938 0.277344 10.851562 0.277344 C 15.367188 0.277344 20.4375 -2.972656 20.4375 -10.296875 C 20.4375 -17.546875 15.367188 -20.796875 10.851562 -20.796875 Z M 17.347656 -10.296875 C 17.347656 -4.832031 14.179688 -2.375 10.851562 -2.375 C 7.527344 -2.375 4.355469 -4.832031 4.355469 -10.296875 C 4.355469 -15.726562 7.527344 -18.140625 10.851562 -18.140625 C 14.179688 -18.140625 17.347656 -15.726562 17.347656 -10.296875 Z M 17.347656 -10.296875 "/></g></g></g><g fill="#db1a48" fill-opacity="1"><g transform="translate(77.986358, 354.19437)"><g><path d="M 11.601562 -7.46875 L 11.601562 -16.636719 L 27.898438 -16.636719 L 27.898438 -23.539062 L 11.601562 -23.539062 L 11.601562 -32.140625 L 30.726562 -32.140625 L 30.726562 -39.609375 L 2.941406 -39.609375 L 2.941406 0 L 31.292969 0 L 31.292969 -7.46875 Z M 11.601562 -7.46875 "/></g></g></g><g fill="#db1a48" fill-opacity="1"><g transform="translate(110.975034, 354.19437)"><g><path d="M 19.296875 -20.316406 L 26.710938 -20.316406 C 25.746094 -25.917969 22.011719 -29.707031 14.203125 -29.707031 C 6.675781 -29.707031 2.207031 -26.425781 2.207031 -20.9375 C 2.207031 -16.917969 4.527344 -13.976562 11.203125 -12.503906 L 15.957031 -11.488281 C 18.164062 -11.035156 19.070312 -10.355469 19.070312 -8.828125 C 19.070312 -7.015625 17.597656 -5.714844 14.316406 -5.714844 C 11.261719 -5.714844 9.449219 -6.902344 8.828125 -9.394531 L 1.246094 -9.394531 C 2.09375 -2.886719 6.734375 0.394531 14.261719 0.394531 C 21.730469 0.394531 27.332031 -2.488281 27.332031 -8.714844 C 27.332031 -14.824219 23.539062 -15.5625 18.277344 -16.75 L 13.015625 -17.9375 C 10.976562 -18.390625 9.902344 -19.238281 9.902344 -20.710938 C 9.902344 -22.578125 11.65625 -23.597656 14.261719 -23.597656 C 16.976562 -23.597656 18.617188 -22.75 19.296875 -20.316406 Z M 19.296875 -20.316406 "/></g></g></g><g fill="#db1a48" fill-opacity="1"><g transform="translate(139.550124, 354.19437)"><g/></g></g><g fill="#db1a48" fill-opacity="1"><g transform="translate(154.65814, 354.19437)"><g><path d="M 37.914062 -21.730469 L 21.84375 -21.730469 L 21.84375 -14.996094 L 30.046875 -14.996094 C 29.480469 -9.109375 26.371094 -6.960938 20.878906 -6.960938 C 14.429688 -6.960938 11.148438 -12.054688 11.148438 -19.804688 C 11.148438 -27.726562 14.542969 -32.652344 20.542969 -32.652344 C 24.445312 -32.652344 26.539062 -31.011719 28.066406 -27.839844 L 36.613281 -27.839844 C 35.253906 -35.988281 28.238281 -40.121094 20.371094 -40.121094 C 9.621094 -40.121094 2.09375 -32.933594 2.09375 -19.804688 C 2.09375 -6.734375 9.507812 0.507812 20.878906 0.507812 C 32.933594 0.507812 37.914062 -6.28125 37.914062 -19.070312 Z M 37.914062 -21.730469 "/></g></g></g><g fill="#db1a48" fill-opacity="1"><g transform="translate(194.946192, 354.19437)"><g><path d="M 19.976562 -29.707031 C 14.9375 -29.707031 12.054688 -26.878906 11.203125 -22.917969 L 11.203125 -29.425781 L 2.941406 -29.425781 L 2.941406 0 L 11.203125 0 L 11.203125 -15.675781 C 11.882812 -19.75 14.542969 -22.296875 20.597656 -22.296875 C 20.992188 -22.296875 21.390625 -22.296875 22.523438 -22.238281 L 22.523438 -29.480469 C 21.390625 -29.707031 20.597656 -29.707031 19.976562 -29.707031 Z M 19.976562 -29.707031 "/></g></g></g><g fill="#db1a48" fill-opacity="1"><g transform="translate(218.711616, 354.19437)"><g><path d="M 25.40625 -40.121094 L 16.355469 -40.121094 L 11.828125 -32.878906 L 18.785156 -32.878906 Z M 28.578125 -7.640625 L 28.578125 -17.371094 C 28.578125 -26.03125 25.011719 -29.707031 15.730469 -29.707031 C 7.921875 -29.707031 3.734375 -26.539062 3.167969 -20.371094 L 10.976562 -20.371094 C 11.375 -22.972656 13.355469 -23.652344 15.675781 -23.652344 C 17.710938 -23.652344 20.316406 -23.199219 20.316406 -19.351562 L 20.316406 -19.296875 C 18.675781 -18.335938 15.617188 -18.050781 12.394531 -17.429688 C 7.015625 -16.46875 1.527344 -15.335938 1.527344 -8.65625 C 1.527344 -2.148438 6.394531 0.394531 11.542969 0.394531 C 18.449219 0.394531 20.769531 -3.960938 21.21875 -4.695312 L 21.21875 -4.46875 C 21.21875 -1.300781 24.105469 0.226562 27.726562 0.226562 C 28.917969 0.226562 29.707031 0.167969 30.726562 -0.28125 L 30.726562 -4.980469 C 29.367188 -5.09375 28.578125 -5.886719 28.578125 -7.640625 Z M 20.316406 -9.28125 C 19.75 -8.261719 17.710938 -5.488281 13.808594 -5.488281 C 10.976562 -5.488281 9.789062 -7.1875 9.789062 -8.996094 C 9.789062 -10.863281 10.863281 -11.941406 13.636719 -12.617188 C 16.296875 -13.183594 18.222656 -13.410156 20.316406 -14.488281 Z M 20.316406 -9.28125 "/></g></g></g><g fill="#db1a48" fill-opacity="1"><g transform="translate(250.398851, 354.19437)"><g><path d="M 17.03125 -34.179688 C 17.9375 -34.179688 18.785156 -34.007812 19.351562 -33.894531 L 19.351562 -39.894531 C 18.5625 -40.175781 16.582031 -40.515625 14.996094 -40.515625 C 10.976562 -40.515625 5.320312 -39.949219 5.320312 -30.613281 L 5.320312 -29.425781 L 1.132812 -29.425781 L 1.132812 -22.972656 L 5.320312 -22.972656 L 5.320312 0 L 13.582031 0 L 13.582031 -22.972656 L 19.183594 -22.972656 L 19.183594 -29.425781 L 13.582031 -29.425781 L 13.582031 -30.445312 C 13.582031 -33.046875 14.316406 -34.179688 17.03125 -34.179688 Z M 17.03125 -34.179688 "/></g></g></g><g fill="#db1a48" fill-opacity="1"><g transform="translate(270.882379, 354.19437)"><g><path d="M 2.941406 -40.121094 L 2.941406 -33.839844 L 11.203125 -33.839844 L 11.203125 -40.121094 Z M 2.941406 -29.425781 L 2.941406 0 L 11.203125 0 L 11.203125 -29.425781 Z M 2.941406 -29.425781 "/></g></g></g><g fill="#db1a48" fill-opacity="1"><g transform="translate(285.028469, 354.19437)"><g><path d="M 16.070312 -6.28125 C 11.996094 -6.28125 9.507812 -9.167969 9.507812 -14.65625 C 9.507812 -20.03125 11.941406 -23.03125 16.015625 -23.03125 C 19.410156 -23.03125 20.65625 -21.390625 21.21875 -19.070312 L 28.804688 -19.070312 C 27.273438 -27.671875 21.21875 -29.707031 15.957031 -29.707031 C 9.222656 -29.707031 1.527344 -25.691406 1.527344 -14.65625 C 1.527344 -3.566406 9.28125 0.394531 16.015625 0.394531 C 21.105469 0.394531 27.613281 -1.753906 29.03125 -10.523438 L 21.617188 -10.523438 C 20.9375 -8.09375 19.523438 -6.28125 16.070312 -6.28125 Z M 16.070312 -6.28125 "/></g></g></g><g fill="#db1a48" fill-opacity="1"><g transform="translate(315.753754, 354.19437)"><g><path d="M 28.578125 -7.640625 L 28.578125 -17.371094 C 28.578125 -26.03125 25.011719 -29.707031 15.730469 -29.707031 C 7.921875 -29.707031 3.734375 -26.539062 3.167969 -20.371094 L 10.976562 -20.371094 C 11.375 -22.972656 13.355469 -23.652344 15.675781 -23.652344 C 17.710938 -23.652344 20.316406 -23.199219 20.316406 -19.351562 L 20.316406 -19.296875 C 18.675781 -18.335938 15.617188 -18.050781 12.394531 -17.429688 C 7.015625 -16.46875 1.527344 -15.335938 1.527344 -8.65625 C 1.527344 -2.148438 6.394531 0.394531 11.542969 0.394531 C 18.449219 0.394531 20.769531 -3.960938 21.21875 -4.695312 L 21.21875 -4.46875 C 21.21875 -1.300781 24.105469 0.226562 27.726562 0.226562 C 28.917969 0.226562 29.707031 0.167969 30.726562 -0.28125 L 30.726562 -4.980469 C 29.367188 -5.09375 28.578125 -5.886719 28.578125 -7.640625 Z M 20.316406 -9.28125 C 19.75 -8.261719 17.710938 -5.488281 13.808594 -5.488281 C 10.976562 -5.488281 9.789062 -7.1875 9.789062 -8.996094 C 9.789062 -10.863281 10.863281 -11.941406 13.636719 -12.617188 C 16.296875 -13.183594 18.222656 -13.410156 20.316406 -14.488281 Z M 20.316406 -9.28125 "/></g></g></g></svg>