<svg xmlns="http://www.w3.org/2000/svg" xmlns:xlink="http://www.w3.org/1999/xlink" width="500" zoomAndPan="magnify" viewBox="0 0 375 187.499995" height="250" preserveAspectRatio="xMidYMid meet" version="1.0"><defs><g/><clipPath id="42462c9a77"><path d="M 0.5 0 L 374.5 0 L 374.5 187 L 0.5 187 Z M 0.5 0 " clip-rule="nonzero"/></clipPath><clipPath id="c3e2dce550"><path d="M 3 27 L 100 27 L 100 124 L 3 124 Z M 3 27 " clip-rule="nonzero"/></clipPath><clipPath id="592ad61c18"><path d="M 111.207031 108.90625 L 18.359375 135.175781 L -7.910156 42.328125 L 84.941406 16.058594 Z M 111.207031 108.90625 " clip-rule="nonzero"/></clipPath><clipPath id="ca8d4f150e"><path d="M 43 50 L 141 50 L 141 147 L 43 147 Z M 43 50 " clip-rule="nonzero"/></clipPath><clipPath id="305b6660d6"><path d="M 151.734375 131.558594 L 58.886719 157.828125 L 32.617188 64.980469 L 125.464844 38.710938 Z M 151.734375 131.558594 " clip-rule="nonzero"/></clipPath><clipPath id="37bb1e63e6"><path d="M 84 72 L 181 72 L 181 170 L 84 170 Z M 84 72 " clip-rule="nonzero"/></clipPath><clipPath id="2b3d0745c6"><path d="M 192.261719 154.210938 L 99.414062 180.480469 L 73.144531 87.632812 L 165.992188 61.363281 Z M 192.261719 154.210938 " clip-rule="nonzero"/></clipPath><clipPath id="2218642c4c"><path d="M 6 12 L 178 12 L 178 184 L 6 184 Z M 6 12 " clip-rule="nonzero"/></clipPath><clipPath id="5f2139c98b"><path d="M 6.152344 50.144531 L 140.027344 12.265625 L 177.902344 146.140625 L 44.027344 184.015625 Z M 6.152344 50.144531 " clip-rule="nonzero"/></clipPath></defs><g clip-path="url(#42462c9a77)"><path fill="#ffffff" d="M 0.5 0 L 374.5 0 L 374.5 194.480469 L 0.5 194.480469 Z M 0.5 0 " fill-opacity="1" fill-rule="nonzero"/><path fill="#ffffff" d="M 0.5 0 L 374.5 0 L 374.5 187 L 0.5 187 Z M 0.5 0 " fill-opacity="1" fill-rule="nonzero"/><path fill="#000000" d="M 0.5 0 L 374.5 0 L 374.5 187 L 0.5 187 Z M 0.5 0 " fill-opacity="1" fill-rule="nonzero"/></g><g clip-path="url(#c3e2dce550)"><g clip-path="url(#592ad61c18)"><path fill="#fff202" d="M 64.785156 122.042969 C 90.421875 114.789062 105.328125 88.121094 98.074219 62.484375 C 90.820312 36.84375 64.15625 21.941406 38.515625 29.195312 C 12.875 36.449219 -2.027344 63.113281 5.226562 88.753906 C 12.480469 114.390625 39.144531 129.296875 64.785156 122.042969 " fill-opacity="1" fill-rule="nonzero"/></g></g><g clip-path="url(#ca8d4f150e)"><g clip-path="url(#305b6660d6)"><path fill="#ec0c8c" d="M 105.3125 144.695312 C 130.949219 137.441406 145.855469 110.773438 138.601562 85.136719 C 131.347656 59.496094 104.683594 44.59375 79.042969 51.847656 C 53.402344 59.101562 38.5 85.765625 45.753906 111.40625 C 53.007812 137.042969 79.671875 151.949219 105.3125 144.695312 " fill-opacity="1" fill-rule="nonzero"/></g></g><g clip-path="url(#37bb1e63e6)"><g clip-path="url(#2b3d0745c6)"><path fill="#00aeef" d="M 145.839844 167.347656 C 171.476562 160.09375 186.382812 133.425781 179.128906 107.789062 C 171.875 82.148438 145.210938 67.246094 119.570312 74.5 C 93.929688 81.753906 79.027344 108.417969 86.28125 134.058594 C 93.535156 159.695312 120.199219 174.601562 145.839844 167.347656 " fill-opacity="1" fill-rule="nonzero"/></g></g><g clip-path="url(#2218642c4c)"><g clip-path="url(#5f2139c98b)"><path fill="#ffffff" d="M 173.023438 129.316406 C 172.015625 125.847656 171.066406 122.1875 169.917969 118.957031 C 169.878906 118.101562 168.859375 115.210938 168.683594 113.875 C 168.347656 112.988281 168.117188 112.070312 167.890625 111.785156 L 167.640625 110.902344 C 165 101.363281 162.421875 92.152344 159.585938 82.640625 C 158.832031 79.964844 158.054688 77.324219 157.296875 74.648438 C 157.046875 73.96875 156.816406 73.253906 156.578125 72.511719 C 155.613281 69.203125 154.765625 66.003906 153.871094 62.847656 C 153.183594 60.210938 152.445312 57.5 151.632812 54.839844 C 151.621094 54.785156 151.652344 54.804688 151.660156 54.832031 C 150.9375 52.582031 149.953125 49.304688 149.242188 46.585938 L 148.695312 45.066406 L 147.460938 40.707031 C 146.386719 36.703125 145.3125 32.703125 144.179688 28.691406 C 142.777344 23.738281 141.363281 18.738281 139.980469 13.753906 L 139.640625 12.550781 L 138.785156 12.792969 L 138.988281 13.515625 L 139.121094 13.476562 L 139.257812 13.957031 C 139.410156 14.492188 139.597656 15.046875 139.753906 15.609375 C 139.980469 16.410156 140.214844 17.242188 140.476562 18.0625 L 141.894531 23.066406 C 142.808594 26.304688 143.753906 29.53125 144.753906 32.660156 L 144.585938 32.476562 C 144.863281 33.261719 145.105469 34.117188 145.375 34.96875 C 145.511719 35.449219 145.675781 35.921875 145.820312 36.429688 C 146.710938 39.472656 147.503906 42.6875 148.445312 45.714844 L 148.308594 45.4375 C 149.5 49.75 150.707031 53.917969 151.902344 58.027344 C 152.453125 59.980469 152.980469 61.941406 153.558594 63.886719 C 154.75 68.203125 155.648438 71.070312 156.875 75.402344 L 156.796875 75.539062 C 159.230469 82.710938 160.796875 90.90625 163.34375 98.367188 L 163.058594 97.867188 C 163.605469 98.984375 164.269531 102.464844 164.496094 101.9375 L 164.769531 103.308594 C 166.675781 108.316406 167.203125 112.730469 169.285156 118.960938 L 169.089844 118.582031 C 169.621094 120.253906 170.226562 122.191406 170.496094 123.445312 C 170.441406 123.257812 170.4375 123.34375 170.296875 122.953125 C 171.460938 128.285156 173.464844 134.046875 175.039062 139.613281 L 174.699219 139.015625 C 174.980469 139.800781 175.300781 140.839844 175.617188 141.960938 L 176.582031 145.359375 C 176.5 145.382812 176.4375 145.371094 176.332031 145.402344 L 176.074219 145.617188 L 175.914062 145.664062 C 175.457031 145.679688 175.550781 145.707031 175.332031 145.65625 C 173.128906 146.25 172.773438 146.117188 171.191406 146.449219 C 171.191406 146.449219 171.21875 146.441406 171.199219 146.476562 C 170.183594 146.96875 168.679688 147.277344 167.816406 147.492188 L 167.445312 147.511719 C 166.882812 147.46875 165.050781 148.5625 165.636719 148.078125 C 161.214844 149.417969 156.128906 150.855469 151.175781 152.257812 C 150.519531 152.589844 147.375 153.332031 148.53125 153.238281 C 147.226562 153.316406 143.515625 154.308594 142.148438 154.695312 C 142.195312 154.652344 142.242188 154.613281 142.457031 154.550781 C 139.707031 154.953125 139.386719 155.765625 136.777344 156.042969 C 136.457031 156.449219 132.230469 157.242188 130.902344 157.964844 C 130.589844 157.996094 130.460938 157.945312 130.5625 157.886719 C 126.046875 159.105469 121.085938 160.480469 117.296875 161.496094 C 114.132812 162.679688 109.421875 163.609375 106.710938 164.753906 C 104.382812 165.324219 100.597656 166.25 97.421875 167.292969 L 97.730469 167.148438 C 94.097656 168.207031 89.542969 169.492188 87.121094 170.4375 C 85.953125 170.394531 84.394531 170.921875 82.785156 171.261719 C 80.394531 172.109375 75.480469 173.441406 71.804688 174.65625 C 71.195312 174.65625 68.773438 175.601562 68.519531 175.414062 C 64.84375 176.625 60.851562 177.84375 56.707031 179.042969 L 50.414062 180.824219 L 47.25 181.691406 L 45.660156 182.109375 L 44.910156 182.324219 L 44.636719 182.371094 L 44.691406 182.355469 C 43.921875 179.335938 43.171875 176.371094 42.421875 173.519531 C 42.222656 173.027344 42.027344 172.535156 41.796875 172.023438 C 40.757812 168.558594 39.640625 164.714844 38.550781 160.863281 C 38.328125 159.972656 38.097656 159.054688 37.777344 158.132812 L 37.613281 157.542969 L 37.628906 157.394531 L 37.246094 155.945312 C 37.28125 155.960938 37.335938 155.949219 37.390625 156.046875 L 37.472656 156.339844 L 37.398438 156.074219 C 37.449219 156.144531 37.503906 156.246094 37.550781 156.40625 L 35.417969 148.863281 C 35.457031 148.90625 35.5 148.953125 35.527344 149.148438 C 35.222656 147.152344 34.726562 146.425781 34.378906 145.195312 L 34.3125 144.957031 C 34.191406 144.527344 34.113281 144.058594 34.027344 143.445312 C 33.664062 143.175781 32.941406 139.507812 32.257812 137.90625 L 32.09375 137.320312 C 32.117188 137.199219 32.128906 137.136719 32.175781 137.207031 C 30.960938 132.699219 29.578125 127.714844 28.550781 123.875 C 27.359375 120.6875 26.421875 115.953125 25.289062 113.269531 C 24.710938 110.917969 23.785156 107.132812 22.734375 103.933594 L 22.878906 104.242188 C 21.816406 100.582031 20.527344 96.035156 19.574219 93.589844 C 19.621094 92.421875 19.09375 90.863281 18.753906 89.253906 C 17.90625 86.867188 16.566406 81.929688 15.351562 78.253906 C 15.355469 77.648438 14.429688 75.195312 14.589844 74.945312 C 13.378906 71.273438 12.15625 67.257812 10.945312 63.089844 L 9.160156 56.777344 L 8.292969 53.613281 L 7.875 52.027344 L 7.664062 51.277344 L 7.613281 51 L 7.882812 50.925781 C 10.984375 50.136719 14.03125 49.359375 16.972656 48.613281 C 18.328125 48.085938 19.832031 47.371094 21.203125 46.808594 C 21.34375 46.796875 21.351562 46.824219 21.03125 46.917969 C 23.050781 46.285156 24.992188 45.996094 27.011719 45.367188 C 26.992188 45.402344 26.992188 45.402344 26.6875 45.546875 C 28.558594 44.902344 30.648438 44.628906 32.847656 43.804688 L 32.996094 43.820312 L 34.390625 43.339844 C 34.378906 43.398438 34.355469 43.523438 33.929688 43.644531 C 51.246094 38.828125 68.972656 33.410156 86.738281 28.441406 L 86.089844 28.710938 L 89.507812 27.601562 C 89.488281 27.636719 89.335938 27.707031 89.179688 27.78125 C 93.636719 26.664062 98.15625 25.152344 102.445312 23.96875 C 102.425781 24.003906 101.808594 24.265625 102.410156 24.152344 C 105.535156 23.035156 107.601562 22.972656 109.058594 22.097656 C 109.226562 22.078125 109.332031 22.136719 109.023438 22.28125 C 117.847656 19.640625 126.925781 17.070312 135.863281 14.628906 C 136.867188 14.289062 137.929688 13.957031 138.984375 13.601562 L 138.773438 12.851562 C 132.902344 14.484375 127.011719 16.152344 121.113281 17.792969 C 102.316406 22.996094 85.800781 27.378906 67.65625 33.058594 C 67.675781 33.027344 67.507812 33.042969 67.984375 32.882812 C 62.730469 34.453125 57.902344 35.675781 52.945312 37.164062 L 52.964844 37.128906 C 40.785156 40.894531 27.351562 44.320312 15.554688 48.003906 L 6.71875 50.503906 L 6.992188 51.464844 C 7.796875 54.300781 8.640625 57.183594 9.464844 60.101562 C 11.953125 69.914062 14.75 79.496094 17.675781 89.128906 C 21.195312 101.046875 24.097656 112.738281 27.582031 124.640625 C 30.027344 133.800781 33 143.1875 35.738281 152.554688 C 36.621094 156.089844 37.511719 159.742188 38.558594 163.34375 L 38.5625 163.054688 C 38.753906 164.128906 39.105469 165.269531 39.496094 166.34375 C 39.832031 167.636719 40.203125 168.949219 40.601562 170.25 C 40.609375 170.277344 40.621094 170.332031 40.605469 170.367188 L 40.5 170.105469 C 40.566406 170.636719 40.785156 171.210938 41.03125 171.777344 C 41.175781 172.285156 41.339844 172.757812 41.480469 173.265625 L 42.726562 177.363281 C 42.96875 178.421875 43.972656 180.941406 43.59375 181.136719 C 43.335938 180.226562 43.808594 182.605469 43.125 180.605469 C 43.164062 180.851562 43.332031 181.441406 43.507812 182.054688 C 43.558594 182.242188 43.640625 182.421875 43.683594 182.582031 C 43.816406 182.949219 43.945312 183.203125 43.976562 183.105469 C 44.253906 183.261719 44.675781 184.152344 44.476562 182.820312 L 45.0625 182.65625 C 45.707031 182.472656 46.347656 182.292969 47 182.136719 C 47.890625 181.914062 48.753906 181.699219 49.566406 181.496094 C 64.878906 177.773438 79.453125 173.273438 94.507812 168.636719 C 107.410156 165.1875 120.140625 161.125 132.722656 157.855469 C 125.828125 159.863281 119.03125 161.902344 111.933594 163.996094 C 112.085938 163.925781 112.15625 163.875 112.3125 163.804688 C 111.789062 164.007812 111.222656 164.253906 110.601562 164.402344 C 110.433594 164.421875 110.746094 164.304688 110.953125 164.214844 C 108.535156 164.667969 104.109375 166.296875 102.59375 166.550781 C 101.929688 166.769531 101.660156 166.933594 102.054688 166.90625 C 93.398438 169.414062 84.121094 172.097656 75.304688 174.765625 C 74.867188 174.859375 74.773438 174.828125 74.882812 174.710938 C 67.433594 177.195312 59.46875 179.300781 51.71875 181.4375 C 51.445312 181.601562 52.523438 181.324219 51.796875 181.617188 C 54.316406 181.019531 56.289062 180.117188 58.582031 179.640625 L 58.3125 179.804688 C 59.957031 179.394531 58.570312 179.5 60.316406 179.121094 C 61.007812 179.011719 60.183594 179.273438 60.488281 179.214844 C 63.960938 178.207031 67.625 177.253906 70.855469 176.109375 C 71.710938 176.070312 74.605469 175.050781 75.941406 174.871094 C 76.832031 174.535156 77.722656 174.3125 78.03125 174.078125 C 90.269531 170.730469 102.695312 167.015625 115.199219 163.476562 C 120.953125 161.445312 128.070312 159.921875 134.996094 157.820312 C 135.046875 157.804688 135.027344 157.835938 135.003906 157.84375 C 137.253906 157.121094 140.535156 156.136719 143.253906 155.425781 L 145.511719 154.613281 C 150.707031 153.257812 155.945312 151.832031 161.164062 150.355469 L 174.632812 146.546875 C 174.558594 146.597656 174.324219 146.691406 173.824219 146.863281 C 174.234375 146.773438 175.757812 146.34375 176.488281 146.050781 C 176.59375 146.019531 176.691406 145.964844 176.773438 145.941406 L 177.308594 145.789062 L 177.21875 145.46875 C 177.355469 145.34375 177.070312 145.453125 177.15625 145.253906 L 175.332031 138.804688 C 175.554688 139.175781 175.773438 140.5625 175.90625 140.320312 C 175.722656 139.359375 175.472656 138.996094 175.332031 138.804688 C 174.25 134.980469 173.1875 131.121094 172.105469 127.296875 C 171.441406 124.851562 170.761719 122.445312 170.113281 120.054688 C 171.929688 125.957031 173.539062 132.0625 175.203125 138.035156 C 175.367188 138.304688 175.089844 137.230469 175.382812 137.953125 C 174.785156 135.4375 173.878906 133.46875 173.40625 131.175781 L 173.570312 131.445312 C 173.160156 129.800781 173.265625 131.1875 172.886719 129.441406 C 172.820312 128.796875 173.089844 129.644531 173.023438 129.316406 M 167.539062 147.945312 L 168.128906 147.78125 C 167.984375 147.792969 167.796875 147.84375 167.539062 147.945312 " fill-opacity="1" fill-rule="nonzero"/></g></g><g fill="#ffffff" fill-opacity="1"><g transform="translate(111.217422, 108.320289)"><g><path d="M 42.039062 -86.90625 C 33.683594 -86.90625 26.613281 -83.5625 21.46875 -77.777344 L 21.46875 -78.164062 C 21.46875 -83.691406 19.667969 -85.878906 16.96875 -85.878906 C 15.296875 -85.878906 13.5 -85.621094 10.800781 -84.976562 C 11.054688 -79.578125 11.3125 -72.507812 11.3125 -64.28125 C 11.3125 -58.75 11.183594 -52.710938 10.925781 -46.28125 C 8.871094 -29.953125 7.585938 -5.398438 7.457031 0.898438 C 8.355469 1.414062 10.285156 1.671875 11.3125 1.671875 C 16.839844 1.671875 19.796875 -5.015625 19.796875 -21.339844 C 19.796875 -26.097656 19.414062 -31.882812 18.898438 -38.4375 C 20.699219 -37.023438 23.910156 -36.511719 27.382812 -36.511719 C 45.894531 -36.511719 59.652344 -52.324219 59.652344 -69.550781 C 59.652344 -82.921875 50.910156 -86.90625 42.039062 -86.90625 Z M 18.898438 -39.726562 C 19.542969 -47.054688 20.828125 -63.894531 21.339844 -73.023438 C 25.070312 -77.90625 30.339844 -80.222656 36.640625 -80.222656 C 46.796875 -80.222656 49.496094 -73.664062 49.496094 -65.695312 C 49.496094 -47.179688 34.066406 -40.753906 18.898438 -39.726562 Z M 18.898438 -39.726562 "/></g></g></g><g fill="#ffffff" fill-opacity="1"><g transform="translate(173.693518, 108.320289)"><g><path d="M 23.140625 1.800781 C 43.066406 1.800781 52.582031 -18.382812 52.582031 -36.382812 C 52.582031 -48.59375 47.824219 -59.652344 34.582031 -59.652344 C 17.613281 -59.652344 4.886719 -41.910156 4.886719 -19.925781 C 4.886719 -8.355469 9 1.800781 23.140625 1.800781 Z M 26.613281 -3.984375 C 16.457031 -3.984375 15.296875 -13.882812 15.296875 -25.453125 C 15.296875 -45.253906 20.699219 -53.609375 29.953125 -53.609375 C 40.496094 -53.609375 42.039062 -41.652344 42.039062 -32.140625 C 42.039062 -14.011719 36.769531 -3.984375 26.613281 -3.984375 Z M 26.613281 -3.984375 "/></g></g></g><g fill="#ffffff" fill-opacity="1"><g transform="translate(231.156099, 108.320289)"><g><path d="M 60.679688 -33.425781 C 60.292969 -34.839844 59.523438 -35.355469 58.238281 -35.355469 C 55.792969 -35.355469 51.808594 -32.652344 47.4375 -28.925781 C 49.109375 -33.683594 50.394531 -38.824219 50.394531 -46.023438 C 50.394531 -53.609375 48.980469 -59.394531 45.511719 -59.394531 C 44.738281 -59.394531 42.683594 -59.007812 41.011719 -57.722656 C 38.824219 -59.136719 36.511719 -59.652344 33.941406 -59.652344 C 19.667969 -59.652344 5.65625 -43.710938 3.855469 -20.3125 C 3.726562 -18.898438 3.726562 -17.355469 3.726562 -15.8125 C 3.726562 -7.457031 5.65625 1.800781 13.882812 1.800781 C 15.171875 1.800781 16.457031 1.542969 17.613281 1.15625 C 10.671875 9.769531 6.300781 17.871094 6.300781 25.070312 C 6.300781 29.3125 7.714844 34.839844 16.585938 34.839844 C 42.808594 34.839844 46.539062 6.941406 46.925781 -23.140625 C 52.066406 -27.511719 57.59375 -31.625 60.679688 -33.425781 Z M 13.113281 -20.699219 C 13.113281 -23.527344 13.242188 -26.867188 13.757812 -30.726562 C 15.554688 -46.28125 20.054688 -53.09375 29.054688 -53.09375 C 32.78125 -53.09375 36.769531 -51.808594 40.367188 -47.179688 C 40.753906 -43.582031 40.882812 -39.980469 40.882812 -36.125 C 40.882812 -33.8125 40.753906 -31.238281 40.625 -28.667969 C 35.226562 -16.457031 25.328125 -7.199219 19.414062 -7.199219 C 15.425781 -7.199219 13.113281 -11.441406 13.113281 -20.699219 Z M 20.570312 30.855469 C 16.070312 30.855469 15.683594 27.382812 15.683594 24.8125 C 15.683594 14.140625 24.683594 -3.085938 34.453125 -11.957031 C 35.609375 -13.242188 37.539062 -15.042969 39.726562 -16.96875 C 37.28125 5.527344 30.855469 30.855469 20.570312 30.855469 Z M 20.570312 30.855469 "/></g></g></g><g fill="#ffffff" fill-opacity="1"><g transform="translate(292.475228, 108.320289)"><g><path d="M 23.140625 1.800781 C 43.066406 1.800781 52.582031 -18.382812 52.582031 -36.382812 C 52.582031 -48.59375 47.824219 -59.652344 34.582031 -59.652344 C 17.613281 -59.652344 4.886719 -41.910156 4.886719 -19.925781 C 4.886719 -8.355469 9 1.800781 23.140625 1.800781 Z M 26.613281 -3.984375 C 16.457031 -3.984375 15.296875 -13.882812 15.296875 -25.453125 C 15.296875 -45.253906 20.699219 -53.609375 29.953125 -53.609375 C 40.496094 -53.609375 42.039062 -41.652344 42.039062 -32.140625 C 42.039062 -14.011719 36.769531 -3.984375 26.613281 -3.984375 Z M 26.613281 -3.984375 "/></g></g></g><g fill="#ffffff" fill-opacity="1"><g transform="translate(180.408833, 163.921242)"><g><path d="M 3.6875 -22.65625 L 6.078125 -22.65625 L 6.078125 0 L 3.6875 0 Z M 3.6875 -22.65625 "/></g></g></g><g fill="#ffffff" fill-opacity="1"><g transform="translate(190.182168, 163.921242)"><g><path d="M 24.4375 -17.15625 C 26.570312 -17.15625 28.25 -16.539062 29.46875 -15.3125 C 30.6875 -14.082031 31.296875 -12.269531 31.296875 -9.875 L 31.296875 0 L 29 0 L 29 -9.640625 C 29 -11.410156 28.570312 -12.757812 27.71875 -13.6875 C 26.863281 -14.613281 25.660156 -15.078125 24.109375 -15.078125 C 22.335938 -15.078125 20.941406 -14.53125 19.921875 -13.4375 C 18.910156 -12.351562 18.40625 -10.851562 18.40625 -8.9375 L 18.40625 0 L 16.109375 0 L 16.109375 -9.640625 C 16.109375 -11.410156 15.679688 -12.757812 14.828125 -13.6875 C 13.984375 -14.613281 12.773438 -15.078125 11.203125 -15.078125 C 9.453125 -15.078125 8.0625 -14.53125 7.03125 -13.4375 C 6.007812 -12.351562 5.5 -10.851562 5.5 -8.9375 L 5.5 0 L 3.203125 0 L 3.203125 -17.015625 L 5.40625 -17.015625 L 5.40625 -13.921875 C 6.007812 -14.953125 6.847656 -15.75 7.921875 -16.3125 C 9.003906 -16.875 10.25 -17.15625 11.65625 -17.15625 C 13.070312 -17.15625 14.300781 -16.851562 15.34375 -16.25 C 16.394531 -15.644531 17.179688 -14.75 17.703125 -13.5625 C 18.328125 -14.675781 19.226562 -15.550781 20.40625 -16.1875 C 21.582031 -16.832031 22.925781 -17.15625 24.4375 -17.15625 Z M 24.4375 -17.15625 "/></g></g></g><g fill="#ffffff" fill-opacity="1"><g transform="translate(224.518232, 163.921242)"><g><path d="M 11.96875 -17.15625 C 13.570312 -17.15625 15.019531 -16.789062 16.3125 -16.0625 C 17.601562 -15.34375 18.613281 -14.320312 19.34375 -13 C 20.082031 -11.6875 20.453125 -10.191406 20.453125 -8.515625 C 20.453125 -6.804688 20.082031 -5.289062 19.34375 -3.96875 C 18.613281 -2.65625 17.609375 -1.640625 16.328125 -0.921875 C 15.046875 -0.203125 13.59375 0.15625 11.96875 0.15625 C 10.59375 0.15625 9.347656 -0.125 8.234375 -0.6875 C 7.117188 -1.257812 6.207031 -2.097656 5.5 -3.203125 L 5.5 6.28125 L 3.203125 6.28125 L 3.203125 -17.015625 L 5.40625 -17.015625 L 5.40625 -13.65625 C 6.09375 -14.78125 7.003906 -15.644531 8.140625 -16.25 C 9.273438 -16.851562 10.550781 -17.15625 11.96875 -17.15625 Z M 11.8125 -1.875 C 13 -1.875 14.078125 -2.148438 15.046875 -2.703125 C 16.015625 -3.253906 16.773438 -4.035156 17.328125 -5.046875 C 17.878906 -6.054688 18.15625 -7.210938 18.15625 -8.515625 C 18.15625 -9.804688 17.878906 -10.953125 17.328125 -11.953125 C 16.773438 -12.960938 16.015625 -13.742188 15.046875 -14.296875 C 14.078125 -14.859375 13 -15.140625 11.8125 -15.140625 C 10.601562 -15.140625 9.519531 -14.859375 8.5625 -14.296875 C 7.601562 -13.742188 6.847656 -12.960938 6.296875 -11.953125 C 5.742188 -10.953125 5.46875 -9.804688 5.46875 -8.515625 C 5.46875 -7.210938 5.742188 -6.054688 6.296875 -5.046875 C 6.847656 -4.035156 7.601562 -3.253906 8.5625 -2.703125 C 9.519531 -2.148438 10.601562 -1.875 11.8125 -1.875 Z M 11.8125 -1.875 "/></g></g></g><g fill="#ffffff" fill-opacity="1"><g transform="translate(246.459666, 163.921242)"><g><path d="M 5.40625 -13.6875 C 5.945312 -14.832031 6.75 -15.695312 7.8125 -16.28125 C 8.882812 -16.863281 10.207031 -17.15625 11.78125 -17.15625 L 11.78125 -14.921875 L 11.234375 -14.953125 C 9.441406 -14.953125 8.035156 -14.398438 7.015625 -13.296875 C 6.003906 -12.203125 5.5 -10.660156 5.5 -8.671875 L 5.5 0 L 3.203125 0 L 3.203125 -17.015625 L 5.40625 -17.015625 Z M 5.40625 -13.6875 "/></g></g></g><g fill="#ffffff" fill-opacity="1"><g transform="translate(259.436831, 163.921242)"><g><path d="M 18.03125 -7.796875 L 3.78125 -7.796875 C 3.914062 -6.023438 4.597656 -4.59375 5.828125 -3.5 C 7.054688 -2.414062 8.609375 -1.875 10.484375 -1.875 C 11.535156 -1.875 12.503906 -2.0625 13.390625 -2.4375 C 14.273438 -2.820312 15.039062 -3.378906 15.6875 -4.109375 L 16.984375 -2.625 C 16.234375 -1.71875 15.289062 -1.023438 14.15625 -0.546875 C 13.019531 -0.078125 11.773438 0.15625 10.421875 0.15625 C 8.671875 0.15625 7.117188 -0.210938 5.765625 -0.953125 C 4.421875 -1.703125 3.367188 -2.734375 2.609375 -4.046875 C 1.859375 -5.359375 1.484375 -6.847656 1.484375 -8.515625 C 1.484375 -10.171875 1.84375 -11.65625 2.5625 -12.96875 C 3.289062 -14.289062 4.285156 -15.316406 5.546875 -16.046875 C 6.804688 -16.785156 8.226562 -17.15625 9.8125 -17.15625 C 11.382812 -17.15625 12.796875 -16.785156 14.046875 -16.046875 C 15.296875 -15.316406 16.273438 -14.296875 16.984375 -12.984375 C 17.703125 -11.679688 18.0625 -10.191406 18.0625 -8.515625 Z M 9.8125 -15.171875 C 8.164062 -15.171875 6.785156 -14.644531 5.671875 -13.59375 C 4.566406 -12.550781 3.9375 -11.191406 3.78125 -9.515625 L 15.859375 -9.515625 C 15.703125 -11.191406 15.066406 -12.550781 13.953125 -13.59375 C 12.847656 -14.644531 11.46875 -15.171875 9.8125 -15.171875 Z M 9.8125 -15.171875 "/></g></g></g><g fill="#ffffff" fill-opacity="1"><g transform="translate(278.98347, 163.921242)"><g><path d="M 11.875 -17.15625 C 14.007812 -17.15625 15.707031 -16.53125 16.96875 -15.28125 C 18.226562 -14.039062 18.859375 -12.238281 18.859375 -9.875 L 18.859375 0 L 16.5625 0 L 16.5625 -9.640625 C 16.5625 -11.410156 16.117188 -12.757812 15.234375 -13.6875 C 14.359375 -14.613281 13.097656 -15.078125 11.453125 -15.078125 C 9.617188 -15.078125 8.164062 -14.53125 7.09375 -13.4375 C 6.03125 -12.351562 5.5 -10.851562 5.5 -8.9375 L 5.5 0 L 3.203125 0 L 3.203125 -17.015625 L 5.40625 -17.015625 L 5.40625 -13.875 C 6.03125 -14.914062 6.894531 -15.722656 8 -16.296875 C 9.113281 -16.867188 10.40625 -17.15625 11.875 -17.15625 Z M 11.875 -17.15625 "/></g></g></g><g fill="#ffffff" fill-opacity="1"><g transform="translate(300.892528, 163.921242)"><g><path d="M 12.171875 -1.03125 C 11.734375 -0.644531 11.195312 -0.347656 10.5625 -0.140625 C 9.925781 0.0546875 9.265625 0.15625 8.578125 0.15625 C 6.984375 0.15625 5.753906 -0.269531 4.890625 -1.125 C 4.023438 -1.988281 3.59375 -3.210938 3.59375 -4.796875 L 3.59375 -15.078125 L 0.546875 -15.078125 L 0.546875 -17.015625 L 3.59375 -17.015625 L 3.59375 -20.75 L 5.890625 -20.75 L 5.890625 -17.015625 L 11.0625 -17.015625 L 11.0625 -15.078125 L 5.890625 -15.078125 L 5.890625 -4.921875 C 5.890625 -3.898438 6.140625 -3.125 6.640625 -2.59375 C 7.148438 -2.070312 7.878906 -1.8125 8.828125 -1.8125 C 9.304688 -1.8125 9.765625 -1.882812 10.203125 -2.03125 C 10.648438 -2.1875 11.035156 -2.40625 11.359375 -2.6875 Z M 12.171875 -1.03125 "/></g></g></g><g fill="#ffffff" fill-opacity="1"><g transform="translate(314.031507, 163.921242)"><g><path d="M 9.15625 -17.15625 C 11.375 -17.15625 13.078125 -16.597656 14.265625 -15.484375 C 15.453125 -14.367188 16.046875 -12.722656 16.046875 -10.546875 L 16.046875 0 L 13.84375 0 L 13.84375 -2.65625 C 13.332031 -1.769531 12.570312 -1.078125 11.5625 -0.578125 C 10.5625 -0.0859375 9.375 0.15625 8 0.15625 C 6.09375 0.15625 4.578125 -0.296875 3.453125 -1.203125 C 2.335938 -2.109375 1.78125 -3.304688 1.78125 -4.796875 C 1.78125 -6.234375 2.300781 -7.394531 3.34375 -8.28125 C 4.394531 -9.164062 6.0625 -9.609375 8.34375 -9.609375 L 13.75 -9.609375 L 13.75 -10.640625 C 13.75 -12.109375 13.335938 -13.222656 12.515625 -13.984375 C 11.703125 -14.753906 10.507812 -15.140625 8.9375 -15.140625 C 7.851562 -15.140625 6.816406 -14.960938 5.828125 -14.609375 C 4.835938 -14.253906 3.984375 -13.765625 3.265625 -13.140625 L 2.234375 -14.859375 C 3.097656 -15.585938 4.132812 -16.148438 5.34375 -16.546875 C 6.550781 -16.953125 7.820312 -17.15625 9.15625 -17.15625 Z M 8.34375 -1.65625 C 9.644531 -1.65625 10.757812 -1.953125 11.6875 -2.546875 C 12.613281 -3.140625 13.300781 -3.992188 13.75 -5.109375 L 13.75 -7.890625 L 8.40625 -7.890625 C 5.5 -7.890625 4.046875 -6.878906 4.046875 -4.859375 C 4.046875 -3.859375 4.421875 -3.070312 5.171875 -2.5 C 5.929688 -1.9375 6.988281 -1.65625 8.34375 -1.65625 Z M 8.34375 -1.65625 "/></g></g></g></svg>